<svg width="775" height="470" viewBox="0 0 775 470" fill="none" xmlns="http://www.w3.org/2000/svg">
<g clip-path="url(#clip0_54940_132)">
<path d="M775 0H0V470H775V0Z" fill="#FDF5E6"/>
<path d="M702.054 365.025C692.212 389.436 673.061 400.209 654.749 404.63H116.862C66.0868 383.923 39.0677 233.337 114.363 196.705C155.623 176.63 184.044 173.145 192.066 141.51C225.801 8.46494 346.761 91.4385 391.529 77.4729C550.741 27.7965 526.853 271.196 626.059 249.131C671.587 239.008 730.95 293.351 702.054 365.025Z" fill="#FAEBD7"/>
<path d="M432.791 291.924C432.791 291.924 415.105 306.281 411.656 305.41C408.208 304.54 424.582 289.913 424.582 289.913C418.42 286.679 399.266 288.706 399.266 288.706C399.266 288.706 392.886 311.165 389.74 309.395C386.594 307.624 396.319 289.823 396.319 289.823C389.456 289.371 381.039 294.934 381.039 294.934C369.516 304.867 381.796 320.507 381.796 320.507C381.796 320.507 379.431 328.238 372.154 335.278C372.154 335.278 361.762 343.668 361.04 358.66L362.926 358.844C362.926 358.844 365.916 344.88 371.351 338.277C371.562 338.038 371.867 337.696 372.244 337.281C372.244 337.281 372.244 337.281 372.245 337.281C373.133 336.384 373.754 335.709 374.172 335.21C376.876 332.373 380.613 328.762 382.413 328.411C382.413 328.411 382.322 328.05 382.336 327.423C382.36 327.739 382.386 328.065 382.413 328.411C383.029 336.316 397.077 343.219 405.719 344.638C414.362 346.058 411.69 342.18 408.712 336.43C405.734 330.681 396.311 328.107 394.161 325.459C392.011 322.811 396.456 322.805 401.663 325.401C406.87 327.997 407.583 334.919 415.936 339.286C424.289 343.653 436.858 328.522 436.858 328.522C430.201 328.153 420.694 320.261 421.038 317.846C421.382 315.432 437.175 322.013 439.875 322.328C442.575 322.644 448.717 318.978 449.668 307.107C450.618 295.236 432.791 291.924 432.791 291.924Z" fill="#82B378"/>
<path d="M338.86 300.839C338.86 300.839 358.395 288.897 349.279 272.691C349.279 272.691 341.986 262.739 334.172 260.18C334.172 260.18 338.339 284.348 334.172 284.917C330.004 285.486 331.307 257.622 331.307 257.622C331.307 257.622 310.73 246.817 302.656 247.67C302.656 247.67 315.418 271.269 311.251 270.7C307.084 270.132 292.758 246.248 292.758 246.248C292.758 246.248 271.66 241.984 268.274 255.631C264.888 269.279 270.358 276.103 273.484 276.956C276.609 277.809 296.665 277.524 296.144 280.368C295.623 283.211 282.079 287.76 274.525 285.201C274.525 285.201 282.86 307.663 293.8 306.526C304.739 305.388 308.125 297.996 314.897 297.427C321.67 296.858 326.618 298.849 323.232 300.839C319.846 302.829 308.386 301.491 302.916 306.567C297.446 311.644 293.018 314.771 303.177 317.046C313.335 319.32 331.567 317.899 335.214 309.369C338.86 300.839 338.86 300.839 338.86 300.839Z" fill="#A8D29F"/>
<path d="M344.069 321.595C338.6 310.506 338.86 300.839 338.86 300.839C332.609 279.23 277.912 259.896 277.912 259.896C347.455 290.603 335.214 309.369 335.214 309.369C337.088 310.562 339.898 316.252 341.848 320.618C342.126 321.361 342.566 322.389 343.219 323.785C343.484 324.417 343.696 324.933 343.842 325.293C347.422 335.074 345.526 351.962 345.526 351.962L347.696 352.598C352.505 335.577 344.069 321.595 344.069 321.595Z" fill="#82B378"/>
<path d="M369.939 284.37C369.939 284.37 344.188 268.629 356.205 247.265C356.205 247.265 365.819 234.147 376.118 230.774C376.118 230.774 370.625 262.631 376.118 263.381C381.612 264.131 379.895 227.401 379.895 227.401C379.895 227.401 407.019 213.159 417.663 214.283C417.663 214.283 400.839 245.391 406.333 244.641C411.826 243.892 430.709 212.409 430.709 212.409C430.709 212.409 458.52 206.787 462.984 224.777C467.447 242.767 460.237 251.763 456.117 252.887C451.997 254.011 425.56 253.636 426.246 257.384C426.933 261.132 444.786 267.129 454.744 263.756C454.744 263.756 443.757 293.365 429.336 291.866C414.916 290.366 410.452 280.621 401.526 279.872C392.599 279.123 386.075 281.746 390.539 284.37C395.002 286.993 410.109 285.229 417.319 291.921C424.529 298.612 430.366 302.735 416.976 305.733C403.586 308.731 379.552 306.857 374.745 295.613C369.939 284.37 369.939 284.37 369.939 284.37Z" fill="#A8D29F"/>
<path d="M450.28 230.399C450.28 230.399 378.178 255.885 369.938 284.37C369.938 284.37 370.281 297.113 363.071 311.73C363.071 311.73 351.952 330.162 358.291 352.598L361.152 351.76C361.152 351.76 358.651 329.498 363.371 316.606C363.564 316.131 363.843 315.45 364.193 314.618C365.054 312.778 365.633 311.422 365.999 310.443C368.57 304.688 372.274 297.187 374.745 295.614C374.745 295.614 358.608 270.877 450.28 230.399Z" fill="#82B378"/>
<path d="M327.012 281.719C327.012 281.719 369.63 268.43 380.335 281.072C389.712 292.148 415.143 335.988 416.482 361.936C417.783 387.149 393.335 403.727 368.185 403.727H323.519L327.012 281.719Z" fill="#F1A34F"/>
<path d="M297.516 294.639C297.516 294.639 357.771 264.759 369.184 284.277C375.244 294.641 391.92 335.988 393.151 361.936C394.348 387.149 371.865 403.727 348.737 403.727H307.661L297.516 294.639Z" fill="#D16E24"/>
<path d="M178.709 202.718C178.709 202.718 253.659 200.503 282.269 200.572C296.987 200.608 296.622 212.769 303.694 226.861C317.857 255.083 341.374 303.627 339.503 311.212C336.839 322.011 236.51 329.488 229.407 326.995C222.303 324.503 178.709 202.718 178.709 202.718Z" fill="#E78B37"/>
<path opacity="0.4" d="M237.395 224.59C237.395 224.59 238.409 208.532 234.858 209.916C231.307 211.301 208.734 233.727 212.285 286.61L222.684 296.301L302.072 281.903L237.395 224.59Z" fill="#C44F00"/>
<path d="M338.314 289.675L311.575 304.094C311.575 304.094 288.662 212.131 287.14 205.118C286.463 201.992 284.373 200.862 282.268 200.572C285.973 200.203 288.669 200.176 288.669 200.176C295.964 200.176 302.447 205.248 304.788 212.787C309.894 229.231 319.296 259.554 328.82 290.439C331.311 289.351 334.276 288.102 337.548 286.817L338.314 289.675Z" fill="#F1A34F"/>
<path d="M284.796 294.656C284.796 294.656 371.207 286.303 381.861 297.44C386.807 302.611 389.584 326.027 391.14 349.632C393.081 379.075 371.222 404.27 344.333 403.849L250.657 403.895L284.796 294.656Z" fill="#DF812F"/>
<path d="M252.453 180.846C249.979 180.241 247.412 180.94 245.676 181.643C245.988 180.979 246.831 180.494 246.831 180.494C245.685 180.681 243.571 182.683 243.571 182.683C226.531 181.353 230.99 206.656 232.903 212.242C234.813 217.829 236.685 224.369 230.503 232.012C218.339 247.05 235.88 260.376 235.88 260.376C236.019 260.413 246.416 270.811 246.416 270.811C244.744 266.339 257.398 235.579 265.509 224.926C266.868 220.134 265.785 212.829 265.696 212.256C266.825 217.957 266.826 221.366 266.539 223.381C272.715 211.887 259.012 182.45 252.453 180.846Z" fill="#B5453C"/>
<path d="M317.797 225.006C318.05 224.59 320.206 217.392 322.489 217.53C324.772 217.669 328.323 218.084 329.21 217.807C330.098 217.53 333.076 215.077 333.586 215.661C334.854 217.115 332 221.614 329.971 222.306C327.942 222.998 324.645 221.96 323.884 222.791C323.123 223.622 323.25 226.598 323.25 226.598L317.797 225.006Z" fill="#FFB27D"/>
<path d="M378.156 384.338C377.908 387.276 381.654 387.99 385.992 388.226C390.331 388.462 389.02 389.431 394.966 390.607C400.911 391.783 403.294 390.006 403.725 389.129C404.108 388.352 401.343 387.135 398.397 385.759C398.027 385.588 397.656 385.411 397.284 385.233C393.969 383.642 392.108 380.396 389.523 377.386C387.075 374.536 384.75 365.409 384.75 365.409L376.67 363.525C376.67 363.525 378.939 371.74 379.726 375.247C380.19 377.309 379.506 379.615 378.899 381.371C378.572 382.326 378.242 383.303 378.156 384.338Z" fill="#FFB27D"/>
<path d="M385.993 388.226C390.331 388.462 389.02 389.431 394.966 390.607C400.912 391.783 403.294 390.006 403.725 389.129C404.108 388.352 401.344 387.135 398.398 385.759L398.352 385.814C398.352 385.814 394.171 387.364 389.346 385.931C385.412 384.765 381.609 382.2 378.9 381.371C378.573 382.326 378.243 383.303 378.156 384.338C377.908 387.276 381.654 387.99 385.993 388.226Z" fill="#C65447"/>
<path d="M297.696 279.748C297.696 279.748 351.387 275.337 361.495 282.3C371.603 289.264 387.814 370.376 387.814 370.376C387.814 370.376 386.813 371.252 384.579 371.516C382.5 371.762 377.923 370.428 377.923 370.428C377.923 370.428 354.626 334.135 352.985 324.992C351.344 315.849 351.744 307.691 348.007 307.472C344.271 307.254 297.689 313.654 290.643 300.104C283.597 286.554 289.422 273.141 289.422 273.141L297.696 279.748Z" fill="#AA413E"/>
<path d="M323.157 233.705C319.507 243.794 310.69 260.238 308.413 260.861C306.493 261.384 297.106 259.044 289.479 256.204C285.015 254.54 281.157 252.704 279.752 251.17C275.948 247.017 263.424 222.618 263.424 222.618C263.424 222.618 275.187 220.991 280.767 224.591C286.347 228.19 299.789 244.803 301.818 244.249C303.848 243.695 313.486 225.144 317.29 223.483C317.29 223.483 323.124 222.099 324.646 226.529C325.029 227.642 324.384 230.313 323.157 233.705Z" fill="#699DEE"/>
<path d="M357.611 393.752C357.363 396.689 361.109 397.403 365.447 397.639C369.786 397.875 368.475 398.845 374.421 400.021C380.366 401.196 382.749 399.42 383.18 398.543C383.563 397.765 380.798 396.548 377.853 395.173C377.482 395.002 377.111 394.824 376.739 394.647C373.424 393.056 371.563 389.81 368.978 386.8C366.53 383.95 364.205 374.823 364.205 374.823L356.125 372.939C356.125 372.939 358.394 381.154 359.181 384.66C359.645 386.723 358.961 389.029 358.354 390.785C358.027 391.74 357.697 392.717 357.611 393.752Z" fill="#FFB27D"/>
<path d="M365.447 397.639C369.786 397.875 368.475 398.845 374.421 400.021C380.366 401.196 382.749 399.42 383.18 398.543C383.563 397.765 380.798 396.548 377.853 395.173L377.807 395.228C377.807 395.228 373.626 396.777 368.801 395.345C364.867 394.179 361.064 391.613 358.355 390.785C358.028 391.739 357.698 392.717 357.611 393.752C357.363 396.689 361.109 397.403 365.447 397.639Z" fill="#C65447"/>
<path d="M323.156 233.705C319.506 243.794 310.69 260.238 308.412 260.861C306.492 261.384 297.105 259.044 289.478 256.204C286.321 253.263 284.383 250.722 284.066 250.204C284.317 250.307 302.097 257.666 305.622 256.016C308.818 254.52 317.863 237.673 323.156 233.705Z" fill="#4A75CB"/>
<path d="M265.009 225.488C265.067 225.496 260.903 229.951 256.869 230.081C253.075 230.206 249.401 226.012 249.446 225.985C250.839 225.169 250.645 222.802 247.939 213.253L248.65 213.174L260.604 211.853C260.604 211.853 261.43 215.811 262.443 219.461C263.292 222.527 264.275 225.375 265.009 225.488Z" fill="#FFB27D"/>
<path d="M260.603 211.852C260.603 211.852 261.43 215.81 262.443 219.461C256.081 221.37 250.989 216.2 248.649 213.174L260.603 211.852Z" fill="#E2915A"/>
<path d="M287.181 283.38C287.181 283.38 334.876 285.844 344.728 293.232C354.58 300.62 367.887 382.36 367.887 382.36C367.887 382.36 366.856 383.192 364.613 383.361C362.528 383.518 358.002 381.991 358.002 381.991C358.002 381.991 336.016 344.736 334.702 335.53C333.389 326.324 334.08 318.189 330.354 317.812C326.627 317.435 279.853 321.851 273.295 308.012C266.738 294.173 287.181 283.38 287.181 283.38Z" fill="#C65447"/>
<path d="M247.111 212.222C247.111 212.222 242.21 207.623 240.053 203.012C238.513 199.72 236.528 186.277 248.925 184.176C248.925 184.176 252.478 183.397 256.389 184.707C259.499 185.748 264.369 188.612 263.357 201.258L263.34 205.421L247.111 212.222Z" fill="#B5453C"/>
<path d="M287.445 287.809C287.027 287.812 286.438 287.781 285.748 287.723C282.961 287.491 278.517 286.84 276.962 286.333C263.839 282.053 251.231 276.773 245.861 258.225C245.212 255.982 244.669 253.546 244.243 250.894L246.29 242.377L250.282 224.4C250.282 224.4 255.193 227.265 259.755 226.161C262.091 225.593 263.423 222.62 263.423 222.62C263.423 222.62 288.122 233.174 296.492 255.047C304.862 276.92 307.736 273.597 310.272 278.304C312.809 283.011 301.565 287.717 287.445 287.809Z" fill="#699DEE"/>
<path d="M263.676 214.605C263.676 214.605 248.827 219.848 245.978 209.704C243.129 199.559 239.294 193.404 248.654 189.627C258.014 185.85 260.952 189.102 262.657 192.235C264.363 195.369 267.465 212.979 263.676 214.605Z" fill="#FFB27D"/>
<path d="M255.382 187.113C255.382 187.113 254.626 200.38 248.847 204.231C243.069 208.082 239.835 207.154 239.835 207.154C239.835 207.154 243.479 201.38 242.44 193.766C242.44 193.766 250.714 182.474 255.382 187.113Z" fill="#B5453C"/>
<path d="M254.64 188.417C254.64 188.417 258.435 190.058 259.902 192.394C261.369 194.73 263.191 199.938 264.561 199.284C264.561 199.284 265.376 190.165 260.636 186.741C255.609 183.11 254.64 188.417 254.64 188.417Z" fill="#B5453C"/>
<path d="M285.749 287.723C282.961 287.491 278.517 286.84 276.963 286.333C263.84 282.053 251.231 276.773 245.862 258.225C245.842 258.089 245.819 257.954 245.796 257.815L247.617 256.251C251.34 253.053 256.362 252.322 260.727 254.333C271.094 259.111 285.333 267.774 285.749 287.723Z" fill="#4A75CB"/>
<path d="M250.283 224.4C250.283 224.4 234.943 226.916 232.407 237.424C229.87 247.932 227.616 282.263 229.899 284.974C232.182 287.686 239.001 284.541 240.523 283.185C242.045 281.829 249.908 246.915 249.908 246.915C249.908 246.915 253.753 231.135 250.283 224.4Z" fill="#699DEE"/>
<path d="M273.637 272.65C273.637 272.65 282.46 270.786 283.456 271.252C284.453 271.718 290.003 277.155 289.434 278.243C288.864 279.33 286.587 280.107 284.026 279.175C281.464 278.243 275.913 277.777 274.917 276.379C273.921 274.98 273.637 272.65 273.637 272.65Z" fill="#FFB27D"/>
<path d="M276.009 271.303C276.009 271.303 241.569 270.682 233.314 276.585C233.314 276.585 228.476 282.023 229.899 284.974C231.322 287.926 235.734 287.46 237.726 287.305C239.718 287.149 274.586 278.45 274.586 278.45C274.586 278.45 278.57 275.187 276.009 271.303Z" fill="#699DEE"/>
<path d="M246.694 281.719C246.694 281.719 285.886 268.43 295.731 281.072C304.354 292.148 327.741 335.988 328.972 361.936C330.168 387.149 307.685 403.727 284.558 403.727H243.481L246.694 281.719Z" fill="#F1A34F"/>
<path d="M305.637 361.936C304.406 335.988 287.73 294.641 281.67 284.277C272.829 269.158 234.681 283.68 217.935 290.993C208.412 260.107 199.008 229.785 193.904 213.342C191.562 205.801 185.08 200.729 177.786 200.729C177.786 200.729 150.553 196.338 146.339 235.942C132.849 362.716 143.689 403.596 192.078 403.911C198.147 403.951 210.008 403.833 220.146 403.709L220.147 403.727H261.224C284.351 403.727 306.834 387.149 305.637 361.936Z" fill="#F1A34F"/>
<path d="M305.639 361.853C304.406 335.828 287.732 294.362 281.67 283.969C274.145 271.059 245.382 279.693 226.664 287.07C223.392 288.359 220.427 289.611 217.937 290.703C208.413 259.727 199.01 229.316 193.905 212.824C191.564 205.263 185.08 200.176 177.786 200.176C177.786 200.176 175.09 200.204 171.384 200.573C171.382 200.573 171.382 200.573 171.379 200.573C165.409 201.167 156.826 202.65 152.712 206.335C149.922 208.834 148.004 219.799 146.34 235.491C142.407 272.559 140.542 302.307 141.072 325.857C141.344 337.936 142.247 348.382 143.824 357.354C144.928 363.638 146.361 369.197 148.144 374.081C155.867 395.271 170.098 403.807 192.078 403.951C194.632 403.968 198.214 403.957 202.262 403.929C207.829 403.89 214.276 403.818 220.146 403.746L220.148 403.765H261.225C284.351 403.766 306.836 387.138 305.639 361.853Z" fill="#D16E24"/>
<path d="M217.484 288.97C211.303 291.621 204.453 294.556 198.91 296.932C193.491 275.169 177.518 210.934 176.256 205.117C175.58 201.992 173.49 200.862 171.384 200.573C175.089 200.204 177.787 200.175 177.787 200.175C185.08 200.175 191.562 205.249 193.904 212.788C198.929 228.97 208.115 258.596 217.484 288.97Z" fill="#F1A34F"/>
<path opacity="0.4" d="M230.1 309.621C227.204 300.146 209.158 303.106 209.158 303.106C209.158 303.106 196.904 319.69 193.338 320.084C189.775 320.48 200.691 304.094 200.691 304.094C193.785 303.502 176.182 311.002 176.182 311.002C176.182 311.002 177.298 330.35 173.732 329.957C170.169 329.561 173.732 312.78 173.732 312.78C167.049 314.557 160.809 321.468 160.809 321.468C153.013 332.72 169.722 341.012 169.722 341.012C169.722 341.012 169.945 347.724 165.266 355.424C165.266 355.424 159.384 363.34 161.271 373.576H156.094C157.086 366.208 152.934 360.621 152.934 360.621C149.385 354.779 149.556 349.687 149.556 349.687C149.556 349.687 162.23 343.396 156.315 334.86C156.315 334.86 151.582 329.616 146.512 328.271C146.512 328.271 149.216 340.999 146.512 341.3C143.808 341.599 144.653 326.922 144.653 326.922C144.653 326.922 143.204 326.305 141.071 325.491C141.343 337.535 142.246 347.951 143.823 356.896C145.391 356.21 146.593 355.313 147.189 354.18C147.29 353.984 147.389 353.798 147.483 353.618C147.341 353.989 147.189 354.18 147.189 354.18C148.404 354.809 150.227 357.807 151.493 360.105C151.673 360.499 151.96 361.038 152.381 361.769C152.553 362.104 152.693 362.378 152.787 362.57C154.248 365.806 154.303 370.518 154.144 373.575H135.349V374.464H136.442C136.843 386.261 145.193 396.284 156.906 400.476H140.014C137.782 400.476 135.973 402.079 135.973 404.056H202.342C202.342 403.809 202.314 403.569 202.261 403.336C201.885 401.705 200.257 400.476 198.304 400.476H181.412C193.125 396.284 201.472 386.261 201.875 374.464H202.636V373.575H167.749C168.555 372.008 169.54 370.474 170.694 369.356C170.828 369.234 171.006 369.073 171.221 368.88C171.792 368.412 172.19 368.06 172.462 367.797C174.217 366.302 176.647 364.394 177.816 364.211C177.816 364.211 177.757 364.02 177.767 363.688C177.783 363.857 177.8 364.029 177.816 364.211C178.217 368.373 187.332 372.011 192.94 372.758C198.548 373.506 196.816 371.463 194.883 368.434C192.95 365.405 186.835 364.051 185.44 362.656C184.045 361.26 186.929 361.257 190.31 362.625C193.688 363.993 194.15 367.639 199.57 369.937C204.99 372.238 213.147 364.27 213.147 364.27C208.828 364.073 202.659 359.917 202.883 358.646C203.106 357.373 213.353 360.839 215.105 361.005C216.858 361.171 220.842 359.241 221.459 352.987C222.078 346.735 210.509 344.991 210.509 344.991C210.509 344.991 207.841 346.749 204.828 348.518C204.234 347.835 203.268 347.079 202.139 346.234C203.133 345.454 204.029 344.783 204.584 344.371C205.698 344.639 206.913 344.844 208.267 344.961C217.624 345.749 224.753 330.153 224.753 330.153C218.293 331.931 206.707 328.772 206.261 326.798C205.814 324.824 222.97 325.02 225.644 324.428C228.32 323.835 232.997 319.098 230.1 309.621ZM172.839 346.932C172.816 346.902 172.626 346.653 172.451 346.193C172.576 346.431 172.705 346.672 172.839 346.932ZM171.16 367.828C171.16 367.828 168.091 369.843 165.951 373.576H163.736C163.462 369.655 163.356 362.659 165.461 357.993C165.585 357.741 165.766 357.384 165.994 356.944C166.273 356.459 166.506 356.038 166.701 355.673C166.894 355.31 167.046 355.003 167.165 354.745C168.834 351.714 171.239 347.763 172.842 346.935C173.238 347.688 173.841 348.364 174.602 348.965C171.559 353.99 177.418 360.048 177.418 360.048C177.418 360.048 175.883 364.12 171.16 367.828ZM195.771 342.97C190.979 341.799 185.202 342.018 183.089 341.012C180.192 339.628 184.426 338.247 190.219 338.643C194.117 338.908 196.704 341.317 200.828 343.106C199.222 342.981 197.45 342.951 195.771 342.97Z" fill="#C44F00"/>
<path d="M166.955 349.839C166.955 349.839 158.986 339.69 166.464 333.244C166.464 333.244 171.926 329.634 176.379 329.928C176.379 329.928 170.069 341.479 172.11 342.628C174.152 343.777 178.292 329.203 178.292 329.203C178.292 329.203 190.721 327.887 194.72 329.986C194.72 329.986 184.094 339.478 186.332 340.043C188.57 340.608 200.047 331.291 200.047 331.291C200.047 331.291 211.615 333.441 210.999 341.144C210.382 348.848 206.396 351.226 204.644 351.021C202.892 350.817 192.643 346.546 192.42 348.113C192.197 349.68 198.366 354.801 202.686 355.041C202.686 355.041 194.53 364.859 189.109 362.026C183.689 359.192 183.226 354.7 179.847 353.015C176.468 351.331 173.584 351.335 174.979 353.053C176.374 354.771 182.489 356.441 184.422 360.172C186.354 363.903 188.088 366.42 182.48 365.499C176.871 364.577 167.756 360.098 167.356 354.968C166.956 349.839 166.955 349.839 166.955 349.839Z" fill="#82B378"/>
<path d="M205.314 341.352C205.314 341.352 173.894 340.03 166.955 349.839C166.955 349.839 165.42 354.856 160.698 359.424C160.698 359.424 153.954 364.869 153.486 374.597L154.71 374.717C154.71 374.717 156.651 365.656 160.177 361.371C160.314 361.216 160.513 360.993 160.759 360.722C161.331 360.144 161.73 359.711 162.001 359.388C163.756 357.546 166.186 355.196 167.356 354.968C167.355 354.968 164.308 342.816 205.314 341.352Z" fill="#82B378"/>
<path d="M139.093 337.076C139.093 337.076 151.769 329.327 145.853 318.81C145.853 318.81 141.121 312.352 136.05 310.691C136.05 310.691 138.755 326.374 136.05 326.744C133.346 327.112 134.191 309.031 134.191 309.031C134.191 309.031 120.838 302.02 115.599 302.574C115.599 302.574 123.881 317.887 121.176 317.519C118.472 317.149 109.176 301.651 109.176 301.651C109.176 301.651 95.4851 298.884 93.288 307.74C91.0907 316.596 94.6402 321.024 96.6685 321.578C98.6966 322.131 111.711 321.947 111.373 323.792C111.035 325.637 102.246 328.589 97.3447 326.928C97.3447 326.928 102.753 341.504 109.852 340.766C116.951 340.028 119.148 335.231 123.543 334.862C127.938 334.493 131.149 335.785 128.952 337.076C126.754 338.368 119.317 337.5 115.768 340.793C112.219 344.088 109.345 346.117 115.937 347.593C122.529 349.069 134.36 348.147 136.727 342.612C139.093 337.076 139.093 337.076 139.093 337.076Z" fill="#A8D29F"/>
<path d="M142.473 350.545C138.924 343.349 139.093 337.076 139.093 337.076C135.036 323.054 99.5415 310.507 99.5415 310.507C144.67 330.434 136.726 342.611 136.726 342.611C137.942 343.386 139.766 347.078 141.031 349.911C141.211 350.393 141.497 351.061 141.921 351.967C142.092 352.376 142.23 352.711 142.325 352.945C144.648 359.291 143.417 370.251 143.417 370.251L144.826 370.664C147.947 359.619 142.473 350.545 142.473 350.545Z" fill="#82B378"/>
<path d="M159.26 326.389C159.26 326.389 142.55 316.174 150.348 302.311C150.348 302.311 156.586 293.798 163.27 291.609C163.27 291.609 159.705 312.283 163.27 312.769C166.835 313.255 165.721 289.421 165.721 289.421C165.721 289.421 183.322 280.179 190.229 280.908C190.229 280.908 179.312 301.095 182.877 300.608C186.441 300.122 198.696 279.692 198.696 279.692C198.696 279.692 216.743 276.044 219.639 287.718C222.535 299.392 217.857 305.229 215.183 305.959C212.509 306.688 195.354 306.445 195.799 308.877C196.245 311.31 207.83 315.201 214.292 313.012C214.292 313.012 207.162 332.226 197.804 331.253C188.447 330.28 185.55 323.957 179.758 323.47C173.965 322.984 169.731 324.686 172.628 326.389C175.524 328.091 185.328 326.947 190.006 331.289C194.685 335.631 198.473 338.306 189.784 340.252C181.094 342.198 165.498 340.982 162.379 333.685C159.26 326.389 159.26 326.389 159.26 326.389Z" fill="#A8D29F"/>
<path d="M211.395 291.366C211.395 291.366 164.607 307.905 159.26 326.389C159.26 326.389 159.482 334.658 154.804 344.143C154.804 344.143 147.588 356.104 151.702 370.664L153.558 370.12C153.558 370.12 151.935 355.673 154.998 347.308C155.123 346.999 155.304 346.557 155.531 346.018C156.09 344.823 156.466 343.944 156.704 343.309C158.372 339.574 160.776 334.706 162.379 333.685C162.379 333.685 151.907 317.633 211.395 291.366Z" fill="#82B378"/>
<path d="M125.964 366.506C125.964 386.24 140.619 402.238 158.697 402.238C176.774 402.238 191.429 386.24 191.429 366.506H125.964Z" fill="#699DEE"/>
<path d="M166.751 401.964C165.42 402.146 164.062 402.238 162.684 402.238C144.607 402.238 129.954 386.239 129.954 366.506H138.085C138.085 384.737 150.593 399.778 166.751 401.964Z" fill="#A1C7FF"/>
<path d="M187.843 399.648H129.551C127.32 399.648 125.512 401.621 125.512 404.056H191.881C191.881 401.621 190.073 399.648 187.843 399.648Z" fill="#4A75CB"/>
<path d="M192.174 366.506H124.888V367.603H192.174V366.506Z" fill="#4A75CB"/>
<path d="M553.403 297.453V331.767C553.403 337.795 551.843 342.672 549.914 342.672H488.359C486.43 342.672 484.87 337.795 484.87 331.767V297.453C484.87 291.425 490.31 285.842 506.266 286.035L549.914 286.548C551.843 286.548 553.403 291.425 553.403 297.453Z" fill="#F1A34F"/>
<path d="M561.558 297.453V331.767C561.558 337.795 559.998 342.672 558.069 342.672H496.515C494.586 342.672 493.025 337.795 493.025 331.767V297.453C493.025 291.425 498.82 285.648 507.685 285.842L558.069 286.548C559.998 286.548 561.558 291.425 561.558 297.453Z" fill="#E78B37"/>
<path d="M546.38 256.3C547.219 254.277 545.961 169.814 564.827 170.826C583.692 171.837 618.908 172.849 618.908 172.849C618.908 172.849 634.839 174.366 625.196 215.839C615.554 257.311 617.65 323.061 617.65 323.061H548.057L546.38 256.3Z" fill="#F1A34F"/>
<path d="M611.774 215.845C610.611 220.8 609.647 226.095 608.796 231.575C605.392 253.777 604.342 279.075 604.087 297.438C603.888 312.61 604.229 323.046 604.229 323.046H534.647L532.973 256.285C533.796 254.273 532.548 169.8 551.411 170.822C561.055 171.348 574.983 171.844 586.273 172.247C587.691 172.278 589.081 172.339 590.414 172.37C599.151 172.65 605.505 172.835 605.505 172.835C605.505 172.835 621.419 174.352 611.774 215.845Z" fill="#E78B37"/>
<path d="M568.068 385.273V340.721C568.068 338.832 566.621 337.253 564.891 337.253H564.863C564.295 337.253 563.756 337.439 563.303 337.748C562.338 338.337 561.686 339.451 561.686 340.721V385.334C561.563 385.356 561.44 385.378 561.317 385.403C552.183 386.952 544.751 394.259 542.255 403.827H587.839C585.272 394.018 577.546 386.594 568.068 385.273Z" fill="#D16E24"/>
<path opacity="0.4" d="M608.739 230.244C607.038 201.756 593.393 177.387 590.415 172.37L560.517 169.142C560.517 169.142 537.469 185.786 543.143 249.845C546.068 282.877 558.546 261.242 569.947 232.536L567.609 294.744C567.609 294.744 595.436 296.818 604.087 297.438C604.343 279.075 605.392 253.777 608.796 231.575C608.796 231.142 608.768 230.678 608.739 230.244Z" fill="#C44F00"/>
<path d="M563.303 337.748C562.339 338.337 561.686 339.451 561.686 340.721V395.312C561.686 396.613 562.338 397.727 563.303 398.285C564.239 397.696 564.891 396.581 564.891 395.312V340.721C564.891 339.451 564.239 338.337 563.303 337.748Z" fill="#F1A34F"/>
<path d="M561.317 385.404C552.183 386.952 544.751 394.259 542.255 403.828H580.379C577.883 394.259 570.479 386.952 561.317 385.404Z" fill="#F1A34F"/>
<path d="M618.646 326.88L617.072 336.74C617.072 338.846 617.085 342.672 615.156 342.672H506.798C504.869 342.672 503.309 340.969 503.309 338.863V326.88C503.309 324.774 504.869 323.071 506.798 323.071H615.156C617.085 323.071 618.646 324.774 618.646 326.88Z" fill="#F1A34F"/>
<path d="M488.303 396.65C488.501 397.703 488.7 398.787 488.643 399.901C488.501 400.521 488.133 400.985 487.594 401.357L487.083 402.41C486.544 402.688 485.239 402.905 483.566 403.091L483.537 402.224C483.31 402.224 483.083 402.224 482.857 402.255V402.224C480.871 402.255 478.403 402.441 475.396 403.741C475.368 403.741 475.339 403.772 475.311 403.772C474.772 403.803 474.233 403.834 473.751 403.865H466.433C462.915 403.308 461.525 401.76 461.27 400.985C461.27 400.769 463.908 399.344 466.092 398.663C466.121 398.663 466.177 398.632 466.262 398.632C466.574 398.508 467.17 398.26 467.312 398.229C467.709 398.074 468.163 397.95 468.56 397.827C472.219 396.65 474.687 393.987 477.58 391.045C480.899 387.67 485.41 372.621 484.814 372.343L492.274 373.395C492.274 373.395 486.289 386.463 486.771 390.519C486.97 392.315 487.565 393.833 487.962 395.381C487.991 395.443 487.991 395.536 488.019 395.598C488.104 395.815 488.161 396.031 488.218 396.248C488.246 396.402 488.274 396.526 488.303 396.65Z" fill="#EF9A60"/>
<path d="M582.185 283.64L550.1 282.208C550.1 282.208 501.301 285.648 497.162 293.391L478.759 387.349C478.759 387.349 479.779 388.849 483.235 389.495C485.063 389.837 489.042 388.849 489.042 388.849C489.042 388.849 512.873 355.584 515.936 334.699C518.497 317.245 519.509 315.422 528.275 315.784C537.041 316.146 563.938 318.459 576.718 315.757C589.499 313.054 582.185 283.64 582.185 283.64Z" fill="#233862"/>
<path d="M488.785 399.034C488.785 399.344 488.756 399.654 488.643 399.901C488.501 400.521 488.133 400.985 487.593 401.356C487.537 401.419 487.48 401.45 487.423 401.48C487.423 401.48 487.423 401.48 487.395 401.48C487.367 401.512 487.338 401.512 487.31 401.543C486.374 402.162 485.126 402.162 483.537 402.224H482.857C480.871 402.255 478.403 402.441 475.396 403.741C475.368 403.741 475.339 403.772 475.311 403.772C475.226 403.803 475.169 403.834 475.084 403.865H462.688C460.986 403.122 460.646 401.945 460.476 401.512C460.334 401.171 460.731 400.799 461.497 400.397C461.554 400.366 461.639 400.335 461.695 400.273C462.773 399.746 464.39 399.189 466.121 398.57C466.149 398.601 466.206 398.601 466.262 398.632C467.425 399.065 471.482 400.459 476.247 399.468C480.219 398.632 484.161 396.588 487.196 395.598C487.452 395.536 487.707 395.443 487.962 395.381C488.02 395.35 488.076 395.35 488.133 395.319C488.19 395.442 488.218 395.598 488.246 395.721C488.53 396.774 488.785 397.889 488.785 399.034Z" fill="#365DA4"/>
<path d="M487.763 401.016L487.593 401.357L487.083 402.41L486.373 403.865H482.884V403.091L482.856 402.255V401.883L487.565 401.047L487.763 401.016Z" fill="#365DA4"/>
<path d="M499.176 396.65C499.375 397.703 499.574 398.787 499.517 399.901C499.375 400.521 499.006 400.985 498.467 401.357L497.957 402.41C497.418 402.688 496.113 402.905 494.439 403.091L494.411 402.224C494.184 402.224 493.957 402.224 493.73 402.255V402.224C491.744 402.255 489.276 402.441 486.27 403.741C486.241 403.741 486.213 403.772 486.185 403.772C485.646 403.803 485.107 403.834 484.625 403.865H477.306C473.788 403.308 472.399 401.76 472.144 400.985C472.144 400.769 474.782 399.344 476.966 398.663C476.994 398.663 477.051 398.632 477.136 398.632C477.448 398.508 478.044 398.26 478.185 398.229C478.582 398.074 479.037 397.95 479.434 397.827C483.093 396.65 485.561 393.987 488.454 391.045C491.773 387.67 496.283 372.621 495.687 372.343L503.148 373.395C503.148 373.395 497.162 386.463 497.645 390.519C497.843 392.315 498.439 393.833 498.836 395.381C498.864 395.443 498.864 395.536 498.893 395.598C498.978 395.815 499.035 396.031 499.091 396.248C499.12 396.402 499.148 396.526 499.176 396.65Z" fill="#FFB27D"/>
<path d="M562.721 196.737L560.223 207.556L547.11 264.115C546.61 264.968 542.434 266.77 537.815 268.462C532.315 270.469 526.172 272.361 525.01 272.25C522.883 272.062 521.707 267.211 522.313 265.844C522.705 264.941 529.717 260.88 535.2 257.239C538.26 255.209 540.84 253.313 541.554 252.184C542.842 250.091 546.047 230.833 548.658 216.739C549.99 209.509 551.178 203.634 551.867 202.093C553.613 198.073 560.413 196.987 562.254 196.779C562.548 196.737 562.721 196.737 562.721 196.737Z" fill="#466AA5"/>
<path d="M590.672 283.672L558.587 282.24C558.587 282.24 509.788 285.68 505.649 293.423L488.644 389.236C488.644 389.236 491.612 390.342 493.475 390.494C496.444 390.736 498.483 389.672 498.483 389.672C498.483 389.672 521.36 355.617 524.424 334.731C526.984 317.278 527.997 315.454 536.762 315.817C545.528 316.179 572.425 318.491 585.206 315.789C597.987 313.087 590.672 283.672 590.672 283.672Z" fill="#2B478B"/>
<path d="M499.659 399.034C499.659 399.344 499.63 399.654 499.517 399.901C499.375 400.521 499.006 400.985 498.467 401.356C498.41 401.419 498.354 401.45 498.297 401.48C498.297 401.48 498.297 401.48 498.269 401.48C498.24 401.512 498.212 401.512 498.184 401.543C497.247 402.162 495.999 402.162 494.411 402.224H493.73C491.744 402.255 489.276 402.441 486.27 403.741C486.241 403.741 486.213 403.772 486.185 403.772C486.099 403.803 486.043 403.834 485.958 403.865H473.562C471.86 403.122 471.519 401.945 471.349 401.512C471.207 401.171 471.605 400.799 472.37 400.397C472.427 400.366 472.512 400.335 472.569 400.273C473.647 399.746 475.264 399.189 476.994 398.57C477.023 398.601 477.079 398.601 477.136 398.632C478.299 399.065 482.355 400.459 487.121 399.468C491.092 398.632 495.035 396.588 498.07 395.598C498.325 395.536 498.581 395.443 498.836 395.381C498.893 395.35 498.949 395.35 499.006 395.319C499.063 395.442 499.091 395.598 499.12 395.721C499.404 396.774 499.659 397.889 499.659 399.034Z" fill="#466AA5"/>
<path d="M498.638 401.016L498.468 401.357L497.957 402.41L497.248 403.865H493.759V403.091L493.73 402.255V401.883L498.439 401.047L498.638 401.016Z" fill="#466AA5"/>
<path d="M578.77 181.53C594.157 180.253 597.167 145.779 578.86 149.977C578.86 149.977 576.294 148.147 575.026 148.129C575.026 148.129 576.006 148.519 576.434 149.19C574.456 148.707 571.388 147.924 568.973 149.42C544.217 164.75 572.806 182.024 578.77 181.53Z" fill="#163560"/>
<path d="M561.407 199.885C561.345 199.903 566.468 204.063 570.862 203.552C574.995 203.074 578.412 197.93 578.36 197.908C576.738 197.248 576.628 194.648 578.268 183.851L577.486 183.88L564.337 184.379C564.337 184.379 563.977 188.807 563.373 192.932C562.868 196.395 562.188 199.644 561.407 199.885Z" fill="#FFB27D"/>
<path d="M560.223 207.556L547.11 264.115C546.61 264.968 542.434 266.77 537.815 268.462C537.424 267.42 537.055 266.225 536.704 264.909C536.004 262.275 535.494 259.706 535.2 257.239C538.26 255.209 540.84 253.313 541.554 252.184C542.842 250.091 546.047 230.833 548.658 216.739C554.536 210.439 560.082 207.343 560.082 207.343L560.223 207.556Z" fill="#2B478B"/>
<path d="M564.337 184.379C564.337 184.379 563.976 188.807 563.373 192.931C570.534 193.974 575.357 187.542 577.485 183.88L564.337 184.379Z" fill="#EF9A60"/>
<path d="M579.026 182.599C579.026 182.599 583.719 176.816 585.434 171.465C586.659 167.645 586.989 152.738 573.254 152.463C573.254 152.463 569.293 152.192 565.227 154.246C561.994 155.879 557.099 159.773 559.912 173.329L560.495 177.844L579.026 182.599Z" fill="#163560"/>
<path d="M561.376 187.862C561.376 187.862 578.198 191.151 579.913 179.683C581.628 168.216 584.954 160.918 574.286 158.333C563.618 155.749 560.872 159.751 559.447 163.427C558.021 167.102 557.044 186.711 561.376 187.862Z" fill="#FFB27D"/>
<path d="M566.646 156.693C566.646 156.693 569.266 170.966 576.058 174.209C582.85 177.453 586.232 175.924 586.232 175.924C586.232 175.924 581.496 170.248 581.59 161.819C581.59 161.819 571.081 150.905 566.646 156.693Z" fill="#163560"/>
<path d="M567.629 157.988C567.629 157.988 563.734 160.381 562.459 163.153C561.184 165.925 559.913 171.871 558.338 171.382C558.338 171.382 556.217 161.621 560.896 157.139C565.857 152.386 567.629 157.988 567.629 157.988Z" fill="#163560"/>
<path d="M591.996 301.075C590.659 303.694 587.754 303.901 584.103 302.753C582.343 302.222 580.432 301.35 578.427 300.337C578.245 300.21 578.03 300.11 577.843 300.014C571.931 296.866 565.336 292.123 560.183 288.513C549.379 280.954 548.664 285.188 545.462 281.014C545.462 281.014 548.753 277.236 544.531 233.105C543.333 220.471 562.72 196.737 562.72 196.737C562.72 196.737 562.85 204.571 578.352 197.903C578.902 197.687 583.139 207.659 586.839 219.701C587.444 221.628 588.017 223.579 588.556 225.557C591.135 234.891 593.05 244.641 592.532 251.419C592.408 253.028 592.162 254.49 591.751 255.703C591.705 255.821 591.659 255.938 591.613 256.056C586.293 270.014 595.817 293.533 591.996 301.075Z" fill="#466AA5"/>
<path d="M538.662 245.932L510.091 243.702L522.326 280.066L549.08 283.095L538.662 245.932Z" fill="#B64C41"/>
<path d="M538.409 246.325L509.837 244.096L522.072 280.459L548.827 283.489L538.409 246.325Z" fill="#D6716B"/>
<path d="M535.837 245.712C535.837 245.712 536.524 241 534.091 240.904C531.658 240.808 530.235 245.412 530.235 245.412L535.837 245.712Z" fill="#B2CBFD"/>
<path d="M531.264 249.978C531.944 253.33 535.874 258.815 535.638 261.59L517.377 261.331C517.377 261.331 517.495 260.041 513.595 250.881C511.991 247.114 513.889 240.308 515.535 240.154L534.086 240.897C534.086 240.897 529.941 243.445 531.264 249.978Z" fill="#D2E9FF"/>
<path d="M510.091 243.702L509.837 244.096L510.468 244.139L510.412 243.896L510.091 243.702Z" fill="#B64C41"/>
<path d="M548.827 283.489L549.081 283.095L548.599 282.688L548.827 283.489Z" fill="#B64C41"/>
<path d="M591.997 301.075C590.659 303.694 587.755 303.901 584.103 302.753C582.343 302.222 580.432 301.35 578.428 300.337C571.328 295.316 563.727 287.289 559.459 274.425C549.871 245.531 586.743 224.609 586.743 224.609L588.556 225.557C591.136 234.891 593.05 244.64 592.532 251.419C592.408 253.028 592.162 254.49 591.752 255.703C591.706 255.821 591.66 255.938 591.613 256.055C586.293 270.014 595.818 293.533 591.997 301.075Z" fill="#2B478B"/>
<path d="M560.673 254.212L559.516 253.316L548.43 270.359L549.586 271.255L560.673 254.212Z" fill="#D16E24"/>
<path d="M548.416 270.324L548.327 271.841L549.572 271.22L548.416 270.324Z" fill="#F1A34F"/>
<path d="M563.201 262.978C563.201 262.978 558.201 260.71 555.664 261.347C553.126 261.985 547.966 263.837 548.193 265.358C548.419 266.879 553.946 268.647 556.54 267.625C559.134 266.603 560.626 268.743 563.692 268.199C566.759 267.656 563.201 262.978 563.201 262.978Z" fill="#FFB27D"/>
<path d="M578.36 197.908C578.36 197.908 594.106 200.827 596.068 205.357C598.029 209.886 596.726 257.363 595.502 262.374C594.279 267.386 568.844 269.747 561.226 269.444C561.226 269.444 560.027 263.808 561.452 260.662C562.877 257.516 581.702 254.116 583.247 251.775C584.792 249.435 580.157 220.578 580.756 214.933C581.355 209.288 578.36 197.908 578.36 197.908Z" fill="#466AA5"/>
<path d="M516.657 264.792C516.657 264.792 521.857 264.242 521.153 266.568C520.448 268.894 518.485 270.017 518.485 270.017C518.485 270.017 514.465 266.854 516.657 264.792Z" fill="#FFB27D"/>
<path d="M610.49 297.453V331.767C610.49 337.795 608.93 342.672 607.001 342.672H545.447C543.517 342.672 541.958 337.795 541.958 331.767V297.453C541.958 291.425 546.866 285.454 563.708 286.548H607.001C608.93 286.548 610.49 291.425 610.49 297.453Z" fill="#F1A34F"/>
<path d="M618.645 297.453V331.767C618.645 337.795 617.085 342.672 615.156 342.672H553.602C551.672 342.672 550.112 337.795 550.112 331.767V297.453C550.112 291.425 555.375 286.035 567.786 286.548L611.753 286.229C618.667 286.228 618.645 291.425 618.645 297.453Z" fill="#DF812F"/>
<path d="M683.395 312.628H603.365C601.461 312.628 599.904 314.328 599.904 316.406V317.76C599.904 319.838 601.461 321.538 603.365 321.538H640.275L642.345 390.699C632.138 391.051 623.706 396.572 621.485 403.896H665.275C663.072 396.63 654.754 391.141 644.656 390.711L646.491 321.538H683.395C685.299 321.538 686.856 319.838 686.856 317.76V316.406C686.856 314.328 685.299 312.628 683.395 312.628Z" fill="#4A75CB"/>
<path d="M638.35 305.361C637.841 305.018 636.849 305.152 636.13 305.316V304.181C636.13 303.93 636.114 303.682 636.086 303.439H625.308C625.28 303.682 625.264 303.93 625.264 304.181V306.49C625.264 309.752 627.709 312.421 630.697 312.421C632.315 312.421 633.773 311.637 634.771 310.402L634.77 310.403C634.77 310.403 637.335 309.713 638.14 308.67C638.945 307.627 639.206 305.938 638.35 305.361ZM637.781 307.496C637.509 308.264 636.287 308.677 635.683 308.837C635.925 308.232 636.075 307.574 636.117 306.885C636.49 306.329 637.077 306.004 637.508 306.089C637.893 306.165 638.126 306.525 637.781 307.496Z" fill="#699DEE"/>
<path d="M626.146 304.18V306.49C626.146 309.751 628.59 312.422 631.578 312.422C631.825 312.422 632.07 312.403 632.308 312.364C629.663 311.974 627.606 309.481 627.606 306.49V304.18C627.606 303.93 627.622 303.682 627.651 303.438H626.19C626.161 303.682 626.146 303.929 626.146 304.18Z" fill="#AFCDFB"/>
<path d="M632.911 311.904H628.476V312.629H632.911V311.904Z" fill="#699DEE"/>
<path d="M666.894 305.361C666.384 305.018 665.393 305.152 664.674 305.316V304.181C664.674 303.93 664.658 303.682 664.63 303.439H653.851C653.823 303.682 653.807 303.93 653.807 304.181V306.49C653.807 309.752 656.252 312.421 659.241 312.421C660.859 312.421 662.317 311.637 663.314 310.402L663.314 310.403C663.314 310.403 665.878 309.713 666.683 308.67C667.488 307.627 667.749 305.938 666.894 305.361ZM666.325 307.496C666.053 308.264 664.83 308.677 664.227 308.837C664.468 308.232 664.618 307.574 664.661 306.885C665.033 306.329 665.621 306.004 666.051 306.089C666.436 306.165 666.669 306.525 666.325 307.496Z" fill="#699DEE"/>
<path d="M654.689 304.18V306.49C654.689 309.751 657.134 312.422 660.121 312.422C660.369 312.422 660.613 312.403 660.852 312.364C658.206 311.974 656.15 309.481 656.15 306.49V304.18C656.15 303.93 656.165 303.682 656.194 303.438H654.733C654.705 303.682 654.689 303.929 654.689 304.18Z" fill="#AFCDFB"/>
<path d="M661.454 311.904H657.019V312.629H661.454V311.904Z" fill="#699DEE"/>
<path d="M697.907 405.429H59.6751C59.3237 405.429 59.0361 405.115 59.0361 404.731V404.561C59.0361 404.178 59.3237 403.864 59.6751 403.864H697.907C698.258 403.864 698.546 404.178 698.546 404.561V404.731C698.545 405.115 698.258 405.429 697.907 405.429Z" fill="#283250"/>
</g>
<defs>
<clipPath id="clip0_54940_132">
<rect width="775" height="470" fill="white"/>
</clipPath>
</defs>
</svg>
